# xmcd CD database file
#
# Track frame offsets:
#	150
#	39364
#	77056
#	116086
#	146156
#	175341
#	279540
#
# Disc length: 4537 seconds
#
# Revision: 0
# Processed by: cddbd v1.5.2PL0 Copyright (c) Steve Scherf et al.
# Submitted via: CDex 1.51
#
DISCID=6011b707
DTITLE=The New Energy Jazz Orchestra - Celestial Boogie
DYEAR=2011
DGENRE=Jazz
TTITLE0=Isabel the Liberator
TTITLE1=Bop Suite - Sweet Bop
TTITLE2=Quarter-mile Blues
TTITLE3=After the Morning
TTITLE4=Yesterday's Promise
TTITLE5=Wayne Suite - Sweet Wayne
TTITLE6=Celestial Boogie
EXTD=YEAR: 2011
EXTT0=
EXTT1=
EXTT2=
EXTT3=
EXTT4=
EXTT5=
EXTT6=
PLAYORDER=
